<svg xmlns="http://www.w3.org/2000/svg" style="display:none">

  <!-- PIZZA 🍕 -->
  <symbol id="ic-pizza" viewBox="0 0 48 48" fill="none">
    <circle cx="24" cy="24" r="22" fill="#FF6B35"/>
    <circle cx="24" cy="24" r="16" fill="#FFC947"/>
    <circle cx="24" cy="24" r="10" fill="#FF8C42"/>
    <circle cx="18" cy="20" r="3" fill="#C0392B"/>
    <circle cx="28" cy="26" r="3" fill="#C0392B"/>
    <circle cx="22" cy="30" r="2.5" fill="#C0392B"/>
    <circle cx="30" cy="18" r="2" fill="#27AE60"/>
    <circle cx="16" cy="28" r="2" fill="#27AE60"/>
    <path d="M24 2 L46 42 L2 42 Z" fill="none" stroke="#E84C3D" stroke-width="0" opacity="0"/>
    <path d="M8 38 Q24 6 40 38" fill="none" stroke="#D35400" stroke-width="1.5" opacity="0.4"/>
  </symbol>

  <!-- SUSHI 🍣 -->
  <symbol id="ic-sushi" viewBox="0 0 48 48" fill="none">
    <ellipse cx="24" cy="28" rx="18" ry="10" fill="#F5F0E8"/>
    <ellipse cx="24" cy="26" rx="18" ry="10" fill="#FAFAF5"/>
    <ellipse cx="24" cy="24" rx="16" ry="8" fill="#2C3E50"/>
    <ellipse cx="24" cy="22" rx="14" ry="7" fill="#F39C12"/>
    <ellipse cx="24" cy="21" rx="12" ry="6" fill="#E74C3C"/>
    <ellipse cx="24" cy="20" rx="10" ry="5" fill="#FA8231"/>
    <rect x="14" y="22" width="20" height="3" rx="1.5" fill="rgba(0,0,0,0.15)"/>
  </symbol>

  <!-- CART 🛒 -->
  <symbol id="ic-cart" viewBox="0 0 48 48" fill="none">
    <path d="M6 8h4l5.5 20h18l4-14H13" stroke="#2C3E50" stroke-width="3" stroke-linecap="round" stroke-linejoin="round"/>
    <circle cx="20" cy="38" r="3" fill="#E74C3C"/>
    <circle cx="32" cy="38" r="3" fill="#E74C3C"/>
    <path d="M13 14h21" stroke="#2C3E50" stroke-width="2" stroke-linecap="round" opacity="0.4"/>
  </symbol>

  <!-- FIRE 🔥 -->
  <symbol id="ic-fire" viewBox="0 0 48 48" fill="none">
    <path d="M24 44 C14 44 8 36 8 28 C8 20 14 16 18 12 C18 18 22 20 22 20 C22 14 26 8 30 4 C30 12 36 16 38 22 C40 28 38 36 32 40 C33 36 30 32 28 30 C28 36 26 40 24 44Z" fill="#FF6B35"/>
    <path d="M24 44 C18 44 14 38 14 32 C14 26 18 22 20 18 C20 22 22 24 22 24 C22 20 24 16 26 12 C26 18 30 22 30 28 C30 34 28 40 24 44Z" fill="#FFC947"/>
    <path d="M24 42 C20 42 18 38 18 34 C18 30 20 28 22 26 C22 29 23 31 24 32 C25 30 24 26 26 24 C26 28 28 30 28 34 C28 38 26 42 24 42Z" fill="#FF3D00"/>
  </symbol>

  <!-- GIFT 🎁 -->
  <symbol id="ic-gift" viewBox="0 0 48 48" fill="none">
    <rect x="6" y="20" width="36" height="24" rx="3" fill="#E74C3C"/>
    <rect x="6" y="14" width="36" height="8" rx="2" fill="#C0392B"/>
    <rect x="21" y="14" width="6" height="30" fill="#F39C12"/>
    <rect x="6" y="17" width="36" height="2" fill="#F39C12"/>
    <path d="M24 14 C24 14 16 10 16 6 C16 4 18 2 20 4 C22 6 24 10 24 14Z" fill="#27AE60"/>
    <path d="M24 14 C24 14 32 10 32 6 C32 4 30 2 28 4 C26 6 24 10 24 14Z" fill="#2ECC71"/>
  </symbol>

  <!-- PHONE 📞 -->
  <symbol id="ic-phone" viewBox="0 0 48 48" fill="none">
    <rect x="10" y="4" width="28" height="40" rx="6" fill="#2C3E50"/>
    <rect x="13" y="8" width="22" height="30" rx="3" fill="#3498DB"/>
    <circle cx="24" cy="42" r="2" fill="#95A5A6"/>
    <rect x="18" y="6" width="12" height="2" rx="1" fill="#95A5A6"/>
    <path d="M16 18 L20 22 L24 18 L28 22 L32 18" stroke="white" stroke-width="1.5" stroke-linecap="round" fill="none"/>
    <path d="M16 24 L32 24" stroke="rgba(255,255,255,0.4)" stroke-width="1.5" stroke-linecap="round"/>
    <path d="M16 28 L28 28" stroke="rgba(255,255,255,0.4)" stroke-width="1.5" stroke-linecap="round"/>
  </symbol>

  <!-- INSTAGRAM 📸 -->
  <symbol id="ic-instagram" viewBox="0 0 48 48" fill="none">
    <rect x="4" y="4" width="40" height="40" rx="12" fill="url(#ig-grad)"/>
    <defs>
      <linearGradient id="ig-grad" x1="0" y1="48" x2="48" y2="0">
        <stop offset="0%" stop-color="#F58529"/>
        <stop offset="50%" stop-color="#DD2A7B"/>
        <stop offset="100%" stop-color="#8134AF"/>
      </linearGradient>
    </defs>
    <rect x="14" y="14" width="20" height="20" rx="6" stroke="white" stroke-width="2.5" fill="none"/>
    <circle cx="24" cy="24" r="5" stroke="white" stroke-width="2.5" fill="none"/>
    <circle cx="32" cy="16" r="1.5" fill="white"/>
  </symbol>

  <!-- MOPED 🛵 -->
  <symbol id="ic-moped" viewBox="0 0 48 48" fill="none">
    <circle cx="12" cy="34" r="7" stroke="#2C3E50" stroke-width="3" fill="none"/>
    <circle cx="12" cy="34" r="3" fill="#E74C3C"/>
    <circle cx="36" cy="34" r="7" stroke="#2C3E50" stroke-width="3" fill="none"/>
    <circle cx="36" cy="34" r="3" fill="#E74C3C"/>
    <path d="M12 34 L18 22 L30 22 L36 34" stroke="#2C3E50" stroke-width="2.5" stroke-linecap="round" fill="none"/>
    <path d="M18 22 L22 14 L30 14 L30 22" stroke="#FF6B35" stroke-width="2" stroke-linecap="round" fill="none"/>
    <path d="M30 22 L38 22 L36 34" stroke="#2C3E50" stroke-width="2" stroke-linecap="round" fill="none"/>
    <rect x="20" y="18" width="10" height="6" rx="2" fill="#3498DB"/>
    <path d="M6 28 L12 34" stroke="#95A5A6" stroke-width="1.5"/>
  </symbol>

  <!-- PLATE 🍽️ -->
  <symbol id="ic-plate" viewBox="0 0 48 48" fill="none">
    <ellipse cx="24" cy="28" rx="18" ry="4" fill="#BDC3C7"/>
    <circle cx="24" cy="24" r="17" fill="#ECF0F1"/>
    <circle cx="24" cy="24" r="13" fill="white"/>
    <circle cx="24" cy="24" r="9" fill="#F8F9FA"/>
    <path d="M22 10 L22 18" stroke="#BDC3C7" stroke-width="2" stroke-linecap="round"/>
    <path d="M26 10 C26 10 30 12 30 16 C30 18 28 18 26 18 L26 10" fill="#BDC3C7"/>
    <path d="M24 10 L24 20" stroke="#BDC3C7" stroke-width="1.5" stroke-linecap="round"/>
  </symbol>

  <!-- SALAD 🥗 -->
  <symbol id="ic-salad" viewBox="0 0 48 48" fill="none">
    <ellipse cx="24" cy="30" rx="18" ry="12" fill="#27AE60"/>
    <ellipse cx="24" cy="28" rx="18" ry="12" fill="#2ECC71"/>
    <circle cx="18" cy="24" r="4" fill="#27AE60"/>
    <circle cx="30" cy="22" r="5" fill="#1A8C3F"/>
    <circle cx="22" cy="20" r="3.5" fill="#52BE80"/>
    <circle cx="28" cy="28" r="3" fill="#A8E6CF"/>
    <ellipse cx="16" cy="28" r="3" ry="2" fill="#E74C3C" transform="rotate(-20 16 28)"/>
    <ellipse cx="32" cy="26" r="2.5" ry="1.5" fill="#E74C3C" transform="rotate(15 32 26)"/>
    <ellipse cx="24" cy="32" r="3" ry="1.5" fill="#F39C12" transform="rotate(-10 24 32)"/>
    <path d="M8 28 Q24 16 40 28" fill="none" stroke="rgba(0,0,0,0.15)" stroke-width="2"/>
  </symbol>

  <!-- NOODLES 🍜 -->
  <symbol id="ic-noodles" viewBox="0 0 48 48" fill="none">
    <ellipse cx="24" cy="36" rx="16" ry="6" fill="#D4A843"/>
    <ellipse cx="24" cy="33" rx="16" ry="8" fill="#F8C555"/>
    <rect x="8" y="20" width="32" height="15" rx="5" fill="#F8C555"/>
    <ellipse cx="24" cy="20" rx="16" ry="6" fill="#FDE68A"/>
    <path d="M14 20 C14 16 16 12 18 14 C20 16 18 20 20 18 C22 16 24 14 24 18 C24 20 22 22 24 20 C26 18 28 16 28 18 C28 20 30 22 30 20 C32 18 32 14 34 16" stroke="#B7791F" stroke-width="2" stroke-linecap="round" fill="none"/>
    <circle cx="16" cy="28" r="2" fill="#E74C3C"/>
    <circle cx="28" cy="30" r="2.5" fill="#2C3E50"/>
    <circle cx="20" cy="32" r="1.5" fill="#27AE60"/>
    <rect x="22" y="4" width="4" height="16" rx="2" fill="#8B4513"/>
    <ellipse cx="24" cy="4" rx="3" ry="2" fill="#6B3410"/>
  </symbol>

  <!-- MUSCLE 💪 -->
  <symbol id="ic-muscle" viewBox="0 0 48 48" fill="none">
    <path d="M28 8 C32 6 38 8 38 14 C38 18 36 20 34 22 C36 26 36 32 32 36 C28 40 22 40 18 36 C14 32 12 24 14 18 C12 16 10 12 14 8 C18 4 24 6 24 8 C24 10 26 10 28 8Z" fill="#FF6B35"/>
    <path d="M22 16 C24 14 28 14 30 16 C32 18 32 22 30 24 C28 26 24 26 22 24 C20 22 20 18 22 16Z" fill="#FFA07A"/>
    <path d="M18 36 C16 34 14 28 16 22" stroke="#D4380D" stroke-width="2" stroke-linecap="round" fill="none"/>
  </symbol>

  <!-- ROCKET 🚀 -->
  <symbol id="ic-rocket" viewBox="0 0 48 48" fill="none">
    <path d="M24 4 C24 4 36 8 36 24 L30 36 L18 36 L12 24 C12 8 24 4 24 4Z" fill="#3498DB"/>
    <ellipse cx="24" cy="22" rx="6" ry="7" fill="white" opacity="0.9"/>
    <ellipse cx="24" cy="22" rx="4" ry="5" fill="#74B9FF"/>
    <path d="M18 36 L14 42 L20 40 Z" fill="#E74C3C"/>
    <path d="M30 36 L34 42 L28 40 Z" fill="#E74C3C"/>
    <path d="M21 38 C22 42 24 44 24 44 C24 44 26 42 27 38" fill="#FF6B35"/>
    <path d="M10 22 C10 22 4 24 6 28 L12 26 Z" fill="#BDC3C7"/>
    <path d="M38 22 C38 22 44 24 42 28 L36 26 Z" fill="#BDC3C7"/>
  </symbol>

  <!-- LEAF / PLANT 🌿 -->
  <symbol id="ic-leaf" viewBox="0 0 48 48" fill="none">
    <path d="M24 42 C24 42 8 30 8 18 C8 10 14 6 20 8 C22 8 24 10 24 10 C24 10 26 8 28 8 C34 6 40 10 40 18 C40 30 24 42 24 42Z" fill="#27AE60"/>
    <path d="M24 42 C24 42 8 30 8 18 C8 12 12 8 18 8 C24 12 24 20 24 42Z" fill="#2ECC71"/>
    <path d="M24 10 L24 42" stroke="#1A8C3F" stroke-width="2" stroke-linecap="round"/>
    <path d="M24 20 C20 16 16 14 12 16" stroke="#1A8C3F" stroke-width="1.5" stroke-linecap="round" fill="none"/>
    <path d="M24 28 C28 24 32 22 36 24" stroke="#1A8C3F" stroke-width="1.5" stroke-linecap="round" fill="none"/>
  </symbol>

  <!-- PIN / LOCATION 📍 -->
  <symbol id="ic-pin" viewBox="0 0 48 48" fill="none">
    <path d="M24 4 C16 4 10 10 10 18 C10 28 24 44 24 44 C24 44 38 28 38 18 C38 10 32 4 24 4Z" fill="#E74C3C"/>
    <circle cx="24" cy="18" r="6" fill="white"/>
    <circle cx="24" cy="18" r="3" fill="#E74C3C"/>
  </symbol>

  <!-- CLOCK 🕐 -->
  <symbol id="ic-clock" viewBox="0 0 48 48" fill="none">
    <circle cx="24" cy="24" r="20" fill="#3498DB"/>
    <circle cx="24" cy="24" r="17" fill="white"/>
    <path d="M24 10 L24 24 L32 28" stroke="#2C3E50" stroke-width="3" stroke-linecap="round" stroke-linejoin="round"/>
    <circle cx="24" cy="24" r="2" fill="#E74C3C"/>
  </symbol>

  <!-- CASH 💵 -->
  <symbol id="ic-cash" viewBox="0 0 48 48" fill="none">
    <rect x="4" y="14" width="40" height="20" rx="4" fill="#27AE60"/>
    <rect x="8" y="18" width="32" height="12" rx="2" fill="#2ECC71"/>
    <circle cx="24" cy="24" r="5" fill="#27AE60"/>
    <circle cx="24" cy="24" r="3.5" fill="#F1C40F"/>
    <text x="24" y="27" font-family="Arial" font-size="5" fill="#27AE60" text-anchor="middle">$</text>
    <circle cx="10" cy="24" r="3" fill="rgba(255,255,255,0.3)"/>
    <circle cx="38" cy="24" r="3" fill="rgba(255,255,255,0.3)"/>
  </symbol>

  <!-- CARD 💳 -->
  <symbol id="ic-card" viewBox="0 0 48 48" fill="none">
    <rect x="4" y="10" width="40" height="28" rx="5" fill="#2C3E50"/>
    <rect x="4" y="18" width="40" height="8" fill="#34495E"/>
    <rect x="10" y="30" width="12" height="4" rx="1" fill="#F39C12"/>
    <rect x="34" y="28" width="6" height="6" rx="1" fill="#E74C3C"/>
    <rect x="28" y="28" width="6" height="6" rx="1" fill="rgba(231,76,60,0.6)"/>
    <rect x="10" y="12" width="8" height="4" rx="1" fill="#F1C40F"/>
  </symbol>

  <!-- GLOBE / ONLINE 🌐 -->
  <symbol id="ic-globe" viewBox="0 0 48 48" fill="none">
    <circle cx="24" cy="24" r="20" fill="#3498DB"/>
    <ellipse cx="24" cy="24" rx="10" ry="20" stroke="white" stroke-width="1.5" fill="none"/>
    <path d="M4 24 H44" stroke="white" stroke-width="1.5"/>
    <path d="M7 14 Q24 10 41 14" stroke="white" stroke-width="1.5" fill="none"/>
    <path d="M7 34 Q24 38 41 34" stroke="white" stroke-width="1.5" fill="none"/>
  </symbol>

  <!-- CHECKMARK ✅ -->
  <symbol id="ic-check" viewBox="0 0 48 48" fill="none">
    <circle cx="24" cy="24" r="20" fill="#27AE60"/>
    <path d="M13 24 L20 31 L35 16" stroke="white" stroke-width="4" stroke-linecap="round" stroke-linejoin="round"/>
  </symbol>

  <!-- PARTY 🎉 -->
  <symbol id="ic-party" viewBox="0 0 48 48" fill="none">
    <path d="M6 42 L22 10 L38 42 Z" fill="#F39C12"/>
    <path d="M6 42 L22 10 L38 42 Z" fill="url(#party-grad)"/>
    <defs>
      <linearGradient id="party-grad" x1="6" y1="42" x2="38" y2="10">
        <stop offset="0%" stop-color="#E74C3C"/>
        <stop offset="100%" stop-color="#F39C12"/>
      </linearGradient>
    </defs>
    <circle cx="10" cy="12" r="3" fill="#E74C3C"/>
    <circle cx="36" cy="8" r="2" fill="#9B59B6"/>
    <circle cx="40" cy="20" r="2.5" fill="#3498DB"/>
    <circle cx="8" cy="30" r="2" fill="#27AE60"/>
    <rect x="20" y="6" width="3" height="3" rx="0.5" fill="#E74C3C" transform="rotate(30 21.5 7.5)"/>
    <rect x="34" y="28" width="3" height="3" rx="0.5" fill="#F39C12" transform="rotate(-20 35.5 29.5)"/>
    <rect x="6" y="20" width="2.5" height="2.5" rx="0.5" fill="#9B59B6" transform="rotate(45 7.25 21.25)"/>
  </symbol>

  <!-- BOX / PACKAGE 📦 -->
  <symbol id="ic-box" viewBox="0 0 48 48" fill="none">
    <rect x="6" y="20" width="36" height="24" rx="3" fill="#F39C12"/>
    <rect x="6" y="20" width="36" height="6" rx="3" fill="#E67E22"/>
    <path d="M6 26 H42" stroke="#D35400" stroke-width="1"/>
    <path d="M18 20 L18 44" stroke="#D35400" stroke-width="1.5"/>
    <path d="M30 20 L30 44" stroke="#D35400" stroke-width="1.5"/>
    <path d="M4 14 L12 8 L44 8 L44 20 L6 20 Z" fill="#FDC15F"/>
    <path d="M4 14 L44 14" stroke="#E67E22" stroke-width="1"/>
    <rect x="19" y="16" width="10" height="4" rx="1" fill="#E67E22"/>
  </symbol>

  <!-- LOCK 🔒 -->
  <symbol id="ic-lock" viewBox="0 0 48 48" fill="none">
    <rect x="10" y="22" width="28" height="22" rx="4" fill="#F39C12"/>
    <path d="M16 22 L16 16 C16 10 32 10 32 16 L32 22" stroke="#E67E22" stroke-width="4" fill="none" stroke-linecap="round"/>
    <circle cx="24" cy="33" r="4" fill="#D35400"/>
    <rect x="22" y="33" width="4" height="5" rx="1" fill="#D35400"/>
  </symbol>

  <!-- SHIELD 🛡️ -->
  <symbol id="ic-shield" viewBox="0 0 48 48" fill="none">
    <path d="M24 4 L40 10 L40 24 C40 34 32 42 24 44 C16 42 8 34 8 24 L8 10 Z" fill="#3498DB"/>
    <path d="M24 4 L40 10 L40 24 C40 34 32 42 24 44 C16 42 8 34 8 24 L8 10 Z" fill="url(#shield-grad)" opacity="0.5"/>
    <defs>
      <linearGradient id="shield-grad" x1="8" y1="4" x2="40" y2="44">
        <stop offset="0%" stop-color="white" stop-opacity="0.3"/>
        <stop offset="100%" stop-color="transparent"/>
      </linearGradient>
    </defs>
    <path d="M16 24 L21 29 L32 18" stroke="white" stroke-width="3" stroke-linecap="round" stroke-linejoin="round"/>
  </symbol>

  <!-- HEART ❤️ -->
  <symbol id="ic-heart" viewBox="0 0 48 48" fill="none">
    <path d="M24 40 C24 40 6 28 6 16 C6 10 10 6 16 6 C20 6 22 8 24 12 C26 8 28 6 32 6 C38 6 42 10 42 16 C42 28 24 40 24 40Z" fill="#E74C3C"/>
    <path d="M24 40 C24 40 6 28 6 16 C6 10 10 6 16 6 C18 6 20 7 22 10" fill="#FF6B6B"/>
  </symbol>

  <!-- HOME 🏠 -->
  <symbol id="ic-home" viewBox="0 0 48 48" fill="none">
    <path d="M6 22 L24 6 L42 22 L42 42 L6 42 Z" fill="#E74C3C"/>
    <path d="M6 22 L24 6 L42 22" fill="#C0392B"/>
    <rect x="16" y="28" width="8" height="14" rx="1" fill="#8E6B3B"/>
    <rect x="26" y="28" width="10" height="10" rx="1" fill="#87CEEB"/>
    <rect x="27" y="29" width="4" height="4" fill="rgba(255,255,255,0.5)"/>
    <path d="M20 6 L20 14 L28 8" fill="none" stroke="#BDC3C7" stroke-width="2"/>
  </symbol>

  <!-- HOT PEPPER 🌶️ -->
  <symbol id="ic-pepper" viewBox="0 0 48 48" fill="none">
    <path d="M28 10 C36 10 42 18 40 28 C38 36 30 40 24 38 C18 36 14 28 16 20 C18 12 22 10 28 10Z" fill="#E74C3C"/>
    <path d="M28 10 C32 10 36 14 36 20 C36 28 30 36 24 38" fill="#C0392B"/>
    <path d="M30 8 C30 8 32 4 28 2 C26 2 26 6 28 8" fill="#27AE60"/>
    <path d="M28 8 C28 8 26 4 24 6" stroke="#27AE60" stroke-width="2" stroke-linecap="round" fill="none"/>
    <ellipse cx="24" cy="24" rx="4" ry="6" fill="rgba(255,255,255,0.2)"/>
  </symbol>

  <!-- STAR ⭐ -->
  <symbol id="ic-star" viewBox="0 0 48 48" fill="none">
    <path d="M24 4 L28.8 17.6 L44 17.6 L31.6 26.4 L36.4 40 L24 31.2 L11.6 40 L16.4 26.4 L4 17.6 L19.2 17.6 Z" fill="#F39C12"/>
    <path d="M24 4 L28.8 17.6 L44 17.6 L31.6 26.4 L36.4 40 L24 31.2" fill="#E67E22"/>
    <path d="M24 10 L27.2 19.6 L38 19.6 L29.4 25.8 L32.6 35.4 L24 29.2" fill="#FDC15F" opacity="0.4"/>
  </symbol>

  <!-- X / CLOSE ✕ -->
  <symbol id="ic-close" viewBox="0 0 48 48" fill="none">
    <path d="M12 12 L36 36" stroke="currentColor" stroke-width="4" stroke-linecap="round"/>
    <path d="M36 12 L12 36" stroke="currentColor" stroke-width="4" stroke-linecap="round"/>
  </symbol>

</svg>
